<?xml version="1.0" encoding="utf-8"?>
<!DOCTYPE svg PUBLIC "-//W3C//DTD SVG 1.1//EN" "http://www.w3.org/Graphics/SVG/1.1/DTD/svg11.dtd">
<svg version="1.1" id="Layer_1" xmlns="http://www.w3.org/2000/svg" xmlns:xlink="http://www.w3.org/1999/xlink" x="0px" y="0px"
	 viewBox="0 0 1704.4275 1621.007" enable-background="new 0 0 1704.4275 1621.007" xml:space="preserve">
<path fill="none" d="M266.1513,956.2198c30.0706,10.2248,62.5216,11.9331,93.9081,8.3342
	c40.4332-4.8669,79.5584-17.8211,116.4969-34.6625c-2.4327-0.2435-4.8924-0.4342-7.3481-0.2743
	c-41.4986,3.1451-78.4307,28.7393-120.5452,27.6191c-2.2863-5.6144,4.8753-9.5029,6.4882-14.5584
	c-14.5414,9.5421-31.324,18.8887-49.3998,15.589c-4.0833-12.0256,11.1281-16.5942,13.3294-26.8121
	c-3.7355,1.4338-7.2244,3.4914-10.3206,6.081C296.3677,947.2598,281.0305,951.8472,266.1513,956.2198z"/>
<path fill="none" d="M452.5724,382.4745c30.3377,9.403,57.5952,27.0952,80.872,48.4553
	c29.8505,27.7034,53.8892,61.1808,73.8739,96.5177c-2.1112-1.2329-4.2133-2.5244-6.106-4.0972
	c-31.7244-26.9367-46.5592-69.351-81.289-93.199c-5.1497,3.1983-1.6415,10.5536-3.3082,15.5917
	c-6.1555-16.2669-14.2391-33.693-30.8023-41.6483c-10.372,7.3288-0.7509,19.9659-4.976,29.5262
	c-2.1793-3.3556-3.7925-7.071-4.7752-10.986C471.7515,407.4841,462.0398,394.7579,452.5724,382.4745z"/>
<g>
	<g>
		<path fill="none" d="M1121.5953,1431.3668c18.4661-24.7025,29.7813-54.1589,35.8757-84.2247
			c7.6381-38.8011,7.4149-78.8212,2.9457-117.9879c-0.9548,2.1735-1.869,4.3878-2.4583,6.7037
			c-9.5479,39.2684,3.0066,81.0558-10.6652,119.613c-5.8711,0.4268-7.3132-7.3539-11.498-10.3605
			c4.4489,16.2925,8.0447,34.5961-0.4266,50.2993c-12.3312,0.1626-11.9857-15.2563-20.7617-20.3553
			c0.2032,3.88,1.0566,7.7196,2.519,11.356C1122.3876,1400.7729,1122.0219,1416.3136,1121.5953,1431.3668z"/>
		<path fill="none" d="M1385.2861,1239.7843c-29.1998,9.9287-60.7111,11.5875-91.1887,8.0929
			c-39.2623-4.726-77.2546-17.3051-113.1235-33.6588c2.3623-0.2363,4.7507-0.4216,7.1354-0.2662
			c40.2969,3.0541,76.1595,27.907,117.0546,26.8192c2.22-5.4518-4.7341-9.2277-6.3003-14.1368
			c14.1202,9.2657,30.4169,18.3417,47.9692,15.1376c3.9651-11.6774-10.8059-16.1136-12.9434-26.0356
			c3.6273,1.3922,7.0153,3.3903,10.0217,5.9049C1355.9448,1231.0837,1370.8378,1235.5382,1385.2861,1239.7843z"/>
	</g>
	<g>
		<path fill="none" d="M319.1413,1239.7843c29.1999,9.9287,60.7111,11.5875,91.1888,8.0929
			c39.2623-4.726,77.2546-17.3051,113.1235-33.6588c-2.3622-0.2363-4.7507-0.4216-7.1354-0.2662
			c-40.2969,3.0541-76.1595,27.907-117.0545,26.8192c-2.22-5.4518,4.7341-9.2277,6.3003-14.1368
			c-14.1203,9.2657-30.4169,18.3417-47.9694,15.1376c-3.9651-11.6774,10.8059-16.1136,12.9435-26.0356
			c-3.6273,1.3922-7.0153,3.3903-10.0218,5.9049C348.4827,1231.0837,333.5896,1235.5382,319.1413,1239.7843z"/>
		<path fill="none" d="M582.8321,1431.3668c-18.4661-24.7025-29.7812-54.1589-35.8757-84.2247
			c-7.6381-38.8011-7.4149-78.8212-2.9457-117.9879c0.9548,2.1735,1.869,4.3878,2.4583,6.7037
			c9.5478,39.2684-3.0067,81.0558,10.6652,119.613c5.871,0.4268,7.3132-7.3539,11.498-10.3605
			c-4.4489,16.2925-8.0447,34.5961,0.4266,50.2993c12.3311,0.1626,11.9857-15.2563,20.7617-20.3553
			c-0.2032,3.88-1.0566,7.7196-2.519,11.356C582.0399,1400.7729,582.4056,1416.3136,582.8321,1431.3668z"/>
	</g>
	<g>
		<path fill="none" d="M253.3752,417.4029c-0.4195,30.8389,7.7403,61.3204,20.4821,89.2265
			c16.6274,35.8803,40.3311,68.126,66.9684,97.1857c-0.5051-2.3197-1.067-4.6485-1.9517-6.8684
			c-15.357-37.3809-50.0757-63.8083-61.6785-103.0378c4.499-3.7961,10.239,1.6509,15.3918,1.6234
			c-13.1757-10.5659-26.8434-23.2603-29.22-40.9438c9.8806-7.3795,18.6642,5.2977,28.7611,4.2645
			c-2.445-3.0196-5.3922-5.6242-8.7128-7.7065C270.7169,442.6196,261.8783,429.8319,253.3752,417.4029z"/>
		<path fill="none" d="M152.6543,727.39c17.7872-25.1958,42.3053-45.0597,69.0164-60.1467
			c34.5417-19.2545,72.672-31.4091,111.3029-39.2618c-1.7721,1.5797-3.5956,3.1335-5.6161,4.4095
			c-34.396,21.2151-78.0177,22.1882-110.463,47.1057c1.4085,5.7156,9.2539,4.6828,13.4065,7.7338
			c-16.8699,0.8035-35.3888,3.0398-47.7056,15.9491c3.656,11.7778,18.2135,6.6846,25.7748,13.4553
			c-3.7529,1.0057-7.6682,1.3807-11.5786,1.1135C181.506,717.1824,166.839,722.3326,152.6543,727.39z"/>
	</g>
	<g>
		<path fill="none" d="M1015.1836,100.7258c-29.4592,9.1307-55.9273,26.3105-78.5302,47.0521
			c-28.986,26.9012-52.3286,59.4092-71.7347,93.7228c2.05-1.1972,4.0912-2.4513,5.9292-3.9786
			c30.8057-26.1567,45.2109-67.3427,78.9351-90.5002c5.0005,3.1057,1.594,10.248,3.2124,15.1402
			c5.9772-15.7959,13.8268-32.7174,29.9103-40.4422c10.0717,7.1166,0.7292,19.3877,4.832,28.6712
			c2.1162-3.2585,3.6827-6.8663,4.6369-10.6678C996.56,125.0111,1005.9904,112.6534,1015.1836,100.7258z"/>
		<path fill="none" d="M689.2438,100.7258c29.4592,9.1307,55.9274,26.3105,78.5302,47.0521
			c28.9861,26.9012,52.3287,59.4092,71.7347,93.7228c-2.05-1.1972-4.0912-2.4513-5.9291-3.9786
			c-30.8058-26.1567-45.211-67.3427-78.9351-90.5002c-5.0005,3.1057-1.5939,10.248-3.2123,15.1402
			c-5.9773-15.7959-13.8268-32.7174-29.9104-40.4422c-10.0717,7.1166-0.7292,19.3877-4.8319,28.6712
			c-2.1162-3.2585-3.6827-6.8663-4.637-10.6678C707.8675,125.0111,698.437,112.6534,689.2438,100.7258z"/>
	</g>
	<g>
		<path fill="none" d="M1551.7731,727.39c-17.7872-25.1958-42.3053-45.0597-69.0164-60.1467
			c-34.5416-19.2545-72.6719-31.4091-111.3029-39.2618c1.7721,1.5797,3.5956,3.1335,5.6161,4.4095
			c34.396,21.2151,78.0177,22.1882,110.463,47.1057c-1.4084,5.7156-9.2539,4.6828-13.4065,7.7338
			c16.8699,0.8035,35.3888,3.0398,47.7057,15.9491c-3.656,11.7778-18.2135,6.6846-25.7748,13.4553
			c3.7529,1.0057,7.6682,1.3807,11.5785,1.1135C1522.9214,717.1824,1537.5884,722.3326,1551.7731,727.39z"/>
		<g>
			<g>
				<path fill="none" d="M1451.0522,417.4029c0.4196,30.8389-7.7404,61.3204-20.4821,89.2265
					c-16.6274,35.8803-40.3312,68.126-66.9685,97.1857c0.5051-2.3197,1.067-4.6485,1.9517-6.8684
					c15.3571-37.3809,50.0758-63.8083,61.6785-103.0378c-4.4989-3.7961-10.239,1.6509-15.3918,1.6234
					c13.1758-10.5659,26.8434-23.2603,29.2201-40.9438c-9.8806-7.3795-18.6642,5.2977-28.7611,4.2645
					c2.4449-3.0196,5.3921-5.6242,8.7128-7.7065C1433.7106,442.6196,1442.5492,429.8319,1451.0522,417.4029z"/>
				<g>
					<path fill="#0C0C0C" d="M852.2137,952.7725c-16.1934-32.7695-34.5969-64.5123-53.6277-95.6263l-4.0784,5.6135
						c21.9358,34.62,41.1306,70.9789,57.7059,108.4935v0.0005c0-0.0001,0.0001-0.0001,0.0001-0.0002
						c0,0.0001,0.0001,0.0001,0.0001,0.0002v-0.0005c16.5754-37.5146,35.77-73.8735,57.706-108.4935l-4.0784-5.6135
						C886.8106,888.2601,868.4071,920.003,852.2137,952.7725z"/>
					<path fill="#0C0C0C" d="M1576.1427,1019.1625c-34.2021-12.6265-71.8109-11.0118-106.9506-3.615
						c-45.162,9.5532-87.9797,27.2117-131.2247,42.8907c-26.7429,9.4072-53.59,19.2419-81.635,23.8467
						c26.6803-12.0536,55.6735-20.3567,78.8534-39.0361c-8.7197-11.616-24.5654-8.7927-37.0149-12.3036
						c5.6986-1.6981,11.5952-2.6254,17.4188-3.7817c29.3683-5.9069,57.4758-18.0439,81.8329-35.4835
						c9.4701-6.7612,18.3253-14.3351,26.5034-22.5861c-0.8855-5.7403-2.0107-11.4389-3.365-17.0958
						c-1.3542-5.6466-2.9587-11.241-4.8027-16.7521c-9.4596-28.4307-25.0552-54.7672-45.3389-76.8012
						c-4.0317-4.3651-8.2614-8.5844-11.8766-13.3037c12.137,4.4797,23.2946,16.0749,37.1818,11.8035
						c-7.7717-28.7327-26.347-52.496-40.8591-77.9263c19.9919,20.2004,35.921,43.9429,52.0272,67.2687
						c25.7739,38.1089,50.0375,77.5617,80.9579,111.8264c24.0864,26.6491,53.5587,50.0583,88.6465,59.9449
						c22.0964,5.8758,45.839,7.6989,68.2896,2.7504c-10.9076-13.3662-26.472-21.6068-39.8174-32.181
						c-16.8042-12.5953-34.2334-28.1702-38.7653-49.6104c5.6882-14.6685,12.4807-29.3265,13.2308-45.3702
						c1.5627-18.3461-3.3754-37.5359-15.3353-51.7981c-7.0841-9.0323-17.0123-15.0331-26.3989-21.3255
						c10.272-2.8858,21.7629,0.6146,31.3892-4.563c10.1262-17.4709,11.2515-39.432,6.2821-58.7781
						c-7.0635-26.1699-24.5864-48.183-44.4846-66.0186c-23.5656-20.9088-51.0376-37.3171-80.3121-48.8602
						c35.6295,0.5105,72.9569,0.4271,105.9089-15.0123c19.9401-9.0948,35.7961-26.472,42.172-47.5579
						c-19.7004-12.9183-44.9224-5.3757-65.4143-15.679c0.2291-0.7606,0.4895-1.5002,0.7604-2.2503
						c-0.6563-0.4375-1.3021-0.8959-1.9274-1.3647c10.5118-20.3879,35.3481-29.1078,43.7034-51.1417
						c-17.5542-13.3037-40.5988-18.0439-62.0806-13.6788c-35.7336,6.8758-65.9769,28.7431-94.5012,50.0999
						c16.8979-26.5449,29.4828-55.9652,36.244-86.7295c5.6257-26.1282,6.855-54.2359-2.813-79.5619
						c-7.3445-18.5752-21.1691-35.6711-39.6194-43.8596c-10.8451,1.4689-18.0751,11.0534-28.0764,14.7622
						c3.8859-10.6055,8.3865-21.2943,8.8137-32.7645c1.2917-18.5752-5.9904-37.0045-18.0438-50.9334
						c-10.0222-12.5328-24.1489-20.3983-37.359-28.9202c-8.949-20.0129-4.0004-42.8595,2.188-62.914
						c4.5941-16.4083,12.3347-32.2227,13.3037-49.4541c-21.0757,9.1991-39.2134,24.6281-53.6317,42.3699
						c-22.5758,28.6181-32.6603,64.8934-36.4836,100.6062c-4.8756,45.9015-1.3126,92.0738,0.2396,138.0483
						c0.677,28.3473,1.7397,56.9133-2.5525,85.0106c-3.2086-29.1078-2.146-59.2469-12.7516-87.0629
						c-13.7413,4.7089-15.9602,20.6484-23.1383,31.3997c0.146-5.9382,1.0939-11.8348,1.7815-17.7314
						c3.4691-29.7537,0.6042-60.2366-8.4594-88.7922c-3.5004-11.0952-7.9697-21.8569-13.2828-32.1915
						c-10.8972-1.7607-21.9194-2.6982-32.9729-2.6982c-0.5834,0-1.1667,0-1.7502,0.0104
						c-29.9517,0.2083-59.8303,6.9071-87.0524,19.3878c-5.3966,2.4898-10.7096,5.209-16.3146,7.1884
						c8.0011-10.1575,22.4821-17.1896,22.7112-31.7122c-29.7329-1.4898-58.0697,8.8345-86.7399,14.7726
						c25.3885-12.762,52.892-20.5858,80.0516-28.7014c44.2032-12.7307,89.2297-23.6071,131.3702-42.4323
						c32.7854-14.6685,64.1643-35.4628,84.4063-65.779c12.4183-19.2003,21.4821-41.2134,23.7218-64.1016
						c-16.0853,6.2403-28.7327,18.5022-42.9115,27.9305c-17.1688,12.0848-37.3694,23.8466-59.1637,21.5235
						c-12.189-9.9283-24.0343-20.9297-39.0569-26.5866c-16.9708-7.1571-36.7441-8.3969-54.0067-1.4273
						c-10.7825,3.9484-19.5544,11.5327-28.4409,18.5127c0.4375-10.6575,7.3134-20.5025,5.3652-31.2643
						c-13.4912-15.0227-34.025-22.8779-53.9546-24.128c-27.0867-1.3752-53.4338,8.4906-76.5407,21.9089
						c-27.1701,15.9395-51.2667,37.0046-71.29,61.2784c11.5013-33.7333,22.9507-69.2585,18.4502-105.3672
						c-2.4899-21.7735-14.1164-42.2239-32.1915-54.8088c-18.3773,14.7519-18.9919,41.0676-35.1295,57.3613
						c-0.6458-0.448-1.2814-0.9272-1.9063-1.4064c-0.6252,0.4792-1.2502,0.9584-1.8961,1.4064
						c-16.1374-16.2937-16.7521-42.6094-35.1293-57.3613c-18.0753,12.5849-29.712,33.0354-32.1915,54.8088
						c-4.5005,36.1087,6.9488,71.6339,18.4398,105.3672c-20.0129-24.2738-44.1097-45.339-71.2798-61.2784
						c-23.1174-13.4183-49.4645-23.2841-76.5407-21.9089c-19.9294,1.2501-40.4633,9.1053-53.9547,24.128
						c-1.948,10.7618,4.9279,20.6068,5.3654,31.2643c-8.8865-6.9801-17.6689-14.5643-28.441-18.5127
						c-17.2626-6.9696-37.0358-5.7299-54.0067,1.4273c-15.0227,5.6569-26.8679,16.6584-39.0569,26.5866
						c-21.7943,2.3232-41.9948-9.4387-59.1635-21.5235c-14.1788-9.4283-26.8262-21.6902-42.9116-27.9305
						c2.2295,22.8882,11.293,44.9014,23.7216,64.1016c20.2421,30.3162,51.621,51.1105,84.3958,65.779
						c42.1511,18.8252,87.1774,29.7016,131.381,42.4323c27.1594,8.1156,54.663,15.9395,80.0514,28.7014
						c-28.6702-5.9382-57.007-16.2624-86.7399-14.7726c0.2293,14.5226,14.7103,21.5547,22.7112,31.7122
						c-5.6047-1.9794-10.918-4.6985-16.3144-7.1884c-27.2222-12.4807-57.1009-19.1795-87.0525-19.3878
						c-11.6368-0.1042-23.2529,0.8335-34.7231,2.6878c-2.6566,5.1673-5.1047,10.4388-7.3238,15.8145
						c-2.219,5.3653-4.2089,10.8243-5.9591,16.377c-9.0636,28.5556-11.9286,59.0385-8.4698,88.7922
						c0.6981,5.8965,1.6461,11.7932,1.7919,17.7314c-7.1884-10.7513-9.397-26.6908-23.1383-31.3997
						c-10.6055,27.8159-9.5428,57.9551-12.762,87.0629c-4.2922-28.0973-3.2191-56.6633-2.542-85.0106
						c1.5523-45.9745,5.1153-92.1468,0.2397-138.0483c-3.8339-35.7128-13.908-71.9881-36.4837-100.6062
						c-14.4289-17.7418-32.5665-33.1708-53.6316-42.3699c0.9688,17.2313,8.7094,33.0458,13.3037,49.4541
						c6.1883,20.0546,11.1368,42.9011,2.1878,62.914c-13.2204,8.5219-27.3368,16.3874-37.3588,28.9202
						c-12.0535,13.9289-19.3357,32.3582-18.0439,50.9334c0.4167,11.4702,4.9277,22.159,8.8135,32.7645
						c-10.0012-3.7088-17.2417-13.2933-28.0764-14.7622c-18.4606,8.1885-32.2748,25.2843-39.6195,43.8596
						c-9.6679,25.326-8.4386,53.4337-2.8129,79.5619c6.7612,30.7643,19.3462,60.1845,36.244,86.7295
						c-28.5244-21.3568-58.7781-43.2241-94.5117-50.0999c-21.4714-4.3651-44.5159,0.375-62.0702,13.6788
						c8.3448,22.0339,33.1916,30.7538,43.7033,51.1417c-0.625,0.4688-1.271,0.9272-1.9273,1.3647
						c0.2708,0.7501,0.5209,1.4897,0.7501,2.2503c-20.4817,10.3033-45.7036,2.7607-65.4143,15.679
						c6.3862,21.0859,22.2423,38.4631,42.1823,47.5579c32.952,15.4395,70.2795,15.5228,105.9089,15.0123
						c-29.2744,11.5431-56.757,27.9514-80.312,48.8602c-19.8983,17.8356-37.4213,39.8487-44.4847,66.0186
						c-4.9694,19.3461-3.8442,41.3072,6.282,58.7781c9.6263,5.1777,21.1172,1.6772,31.3789,4.563
						c-9.3762,6.2924-19.3045,12.2932-26.3887,21.3255c-11.9598,14.2622-16.898,33.452-15.3353,51.7981
						c0.7501,16.0436,7.5426,30.7017,13.2204,45.3702c-4.5213,21.4402-21.9506,37.015-38.7547,49.6104
						c-13.3455,10.5742-28.9098,18.8148-39.8175,32.181c22.4507,4.9485,46.1932,3.1254,68.2897-2.7504
						c35.0877-9.8866,64.5601-33.2958,88.6464-59.9449c30.9205-34.2646,55.1839-73.7174,80.9475-111.8264
						c16.1165-23.3258,32.0456-47.0683,52.0273-67.2687c-14.5018,25.4303-33.077,49.1937-40.8488,77.9263
						c13.8871,4.2714,25.0447-7.3238,37.1817-11.8035c-3.6151,4.7193-7.8448,8.9386-11.8765,13.3037
						c-20.2837,22.034-35.8794,48.3705-45.3389,76.8012c-3.6984,11.0325-6.3966,22.3673-8.1677,33.8479
						c8.1781,8.251,17.023,15.8249,26.5033,22.5861c24.3572,17.4396,52.4648,29.5766,81.8226,35.4835
						c5.8237,1.1564,11.7306,2.0836,17.4189,3.7817c-12.439,3.5109-28.2848,0.6876-37.0046,12.3036
						c23.1695,18.6794,52.1731,26.9825,78.8535,39.0361c-28.0451-4.6047-54.8922-14.4395-81.6351-23.8467
						c-43.2449-15.6791-86.0627-33.3375-131.2246-42.8907c-35.1502-7.3968-72.759-9.0115-106.9507,3.615
						c-21.336,8.2302-41.6093,20.7109-56.8612,37.911c16.6792,4.4069,34.1084,1.9272,51.1313,2.6252
						c20.9921,0.323,44.245,2.6774,60.5179,17.3563c4.0214,15.2102,7.1468,31.0664,15.9603,44.4742
						c9.522,15.7729,24.7947,28.3889,42.8595,32.8999c11.043,3.1462,22.5965,2.167,33.8896,1.7397
						c-6.6154,8.3657-17.971,12.2932-22.7112,22.1382c2.0836,20.0858,14.0747,38.5151,29.462,51.246
						c21.1068,17.0229,48.2143,24.5342,74.8009,27.2534c31.3477,3.0836,63.2266,0.1979,93.6887-7.6677
						c-29.1286,20.5234-59.2678,42.5366-76.8636,74.3947c-10.7826,19.0753-13.3871,42.4636-6.157,63.2683
						c23.5342-1.1356,39.4945-22.0653,62.1327-25.7637c0.2605,0.7397,0.4896,1.5002,0.7084,2.2607
						c0.7918-0.0313,1.5836-0.0417,2.3649-0.0313c3.4796,22.6798-11.491,44.3284-5.2923,67.0603
						c22.0132,0.448,43.4533-9.2616,58.2572-25.4094c24.8677-26.5762,36.4837-62.0389,47.0058-96.0952
						c1.9378,31.4102,9.0428,62.6121,21.6589,91.4802c10.8035,24.4404,26.3262,47.9017,49.0373,62.7159
						c16.8667,10.6993,38.0881,16.4083,57.8405,12.189c7.8969-7.5634,8.126-19.5648,14.033-28.4409
						c3.0941,10.866,5.7299,22.1591,12.1266,31.6915c9.8762,15.7831,26.5969,26.4094,44.5367,30.5869
						c15.4705,4.2506,31.5246,2.3234,47.2244,1.4482c19.0023,10.9285,28.4202,32.3165,35.2127,52.1835
						c5.9277,15.9707,8.9595,33.3167,18.3044,47.8289c11.6368-19.8358,17.2418-42.974,18.4814-65.7998
						c1.4376-36.4316-11.7202-71.6963-29.6183-102.8357c-23.0341-40.0049-53.0587-75.2698-81.3433-111.545
						c-17.2001-22.5341-34.8585-45.0264-47.9017-70.2692c19.7107,21.6486,36.567,46.6621,61.4972,62.9351
						c8.3448-11.8871,0.7709-26.0865,0.2605-39.0049c3.3754,4.8965,6.0736,10.22,8.9801,15.3976
						c14.6895,26.097,34.921,49.0791,59.0386,66.8522c9.345,6.9279,19.2941,13.0016,29.66,18.2314
						c10.3763-5.2299,20.315-11.3036,29.6703-18.2314c24.1174-17.7731,44.3492-40.7551,59.0385-66.8522
						c2.9067-5.1776,5.6049-10.5011,8.9803-15.3976c-0.5105,12.9183-8.0842,27.1178,0.2604,39.0049
						c24.9302-16.2729,41.7864-41.2865,61.4972-62.9351c-13.0433,25.2428-30.7018,47.7351-47.9017,70.2692
						c-28.2847,36.2753-58.3094,71.5402-81.3433,111.545c-17.8981,31.1394-31.0664,66.4041-29.6183,102.8357
						c1.2398,22.8258,6.8445,45.964,18.4814,65.7998c9.3448-14.5122,12.3765-31.8582,18.3043-47.8289
						c6.7925-19.8669,16.2104-41.255,35.2128-52.1835c15.6999,0.8751,31.7435,2.8024,47.2247-1.4482
						c17.9397-4.1775,34.6604-14.8038,44.5367-30.5869c6.3965-9.5325,9.0323-20.8256,12.1264-31.6915
						c5.907,8.8761,6.1362,20.8776,14.033,28.4409c19.7421,4.2194,40.9739-1.4896,57.8405-12.189
						c22.7112-14.8142,38.2339-38.2755,49.0374-62.7159c12.6162-28.8682,19.7212-60.0701,21.6486-91.4802
						c10.5325,34.0563,22.1487,69.519,47.0161,96.0952c14.8041,16.1478,36.2338,25.8574,58.2573,25.4094
						c6.1987-22.7319-8.772-44.3805-5.3027-67.0603c0.7917-0.0105,1.5835,0,2.3649,0.0313l-23.6799-32.5978l23.6904,32.5978
						c0.2186-0.7605,0.4479-1.521,0.7083-2.2607c22.6278,3.6984,38.5986,24.6281,62.1327,25.7637
						c7.2302-20.8047,4.6152-44.193-6.1674-63.2683c-17.5854-31.858-47.7246-53.8712-76.8534-74.3947
						c30.4622,7.8656,62.3412,10.7513,93.6888,7.6677c26.5865-2.7192,53.6941-10.2305,74.8008-27.2534
						c15.3873-12.7308,27.3784-31.1602,29.462-51.246c-4.7505-9.845-16.0957-13.7725-22.7111-22.1382
						c11.293,0.4272,22.8466,1.4065,33.8895-1.7397c18.0648-4.511,33.327-17.127,42.8596-32.8999
						c8.8135-13.4078,11.9388-29.264,15.9602-44.4742c16.2625-14.679,39.5258-17.0333,60.5178-17.3563
						c17.0126-0.698,34.4523,1.7816,51.1315-2.6252C1617.7417,1039.8734,1597.4683,1027.3927,1576.1427,1019.1625z
						 M1482.7562,667.244c26.7115,15.0851,51.2251,34.9522,69.019,60.1428c-14.1895-5.0527-28.8579-10.2096-44.141-9.6366
						c-3.9067,0.2604-7.824-0.1146-11.5743-1.1147c7.5634-6.7717,22.1174-1.6773,25.774-13.46
						c-12.3141-12.9079-30.8372-15.1373-47.7039-15.9499c4.1464-3.0421,11.9911-2.0107,13.4078-7.7301
						c-32.4518-24.9198-76.0718-25.8887-110.4719-47.0996c-2.0211-1.2814-3.8442-2.8337-5.6152-4.4172
						C1410.0806,635.8338,1448.2102,647.9916,1482.7562,667.244z M1473.703,518.2568c26.6178-15.3144,60.4033-18.5857,88.438-4.9799
						c-11.6368,18.8878-28.6493,33.7542-47.0475,45.8182c-9.9178,6.6049-20.2317,12.6682-30.5037,18.7731
						c11.8972-1.1042,23.8049-2.2711,35.7023-2.7502c21.9818-1.0627,44.4742,0.9689,64.9976,9.4073
						c-14.679,27.493-43.9324,44.7035-74.4675,47.9643c-48.3601,5.7195-95.6577-7.6884-142.8718-16.7312
						C1400.8293,580.6916,1431.2185,542.0515,1473.703,518.2568z M1430.5726,506.6304
						c-16.627,35.8794-40.3383,68.123-66.9667,97.1891c0.5001-2.3232,1.0627-4.6569,1.9484-6.8758
						c15.356-37.3796,50.079-63.81,61.6742-103.0336c-4.5006-3.8026-10.241,1.646-15.3873,1.6252
						c13.1786-10.5638,26.847-23.2633,29.2224-40.9425c-9.8866-7.3864-18.6691,5.2923-28.764,4.2609
						c2.4482-3.0212,5.3965-5.6257,8.7095-7.7093c12.6995-8.5219,21.5443-21.3152,30.0454-33.7438
						C1451.4711,448.2377,1443.3138,478.7206,1430.5726,506.6304z M1326.8932,220.4492c1.0521,9.199,2.2814,19.0857,8.4386,26.472
						c12.7098,15.8666,34.8898,20.1796,47.4017,36.1295c7.7405,28.5452-3.8652,57.403-13.179,84.0833
						c2.4901,0.1771,5.282,0.8959,7.4282-0.9584c7.5112-4.6048,14.9913-9.3241,22.0547-14.6373
						c5.8654-4.3338,13.5538-8.1781,20.9089-5.3444c17.4501,10.4388,29.0555,31.556,24.8259,52.0273
						c-5.6779,29.9724-28.8578,52.4335-51.6417,70.8421c12.314,7.105,24.1071-4.5631,36.4524-5.3861
						c-7.9802,14.3351-22.7947,23.3883-30.2538,38.0568c4.5631,4.9485,11.4285,3.615,17.4396,3.7088
						c-13.5537,19.7316-29.6807,37.6401-42.0052,58.1946c-5.8965,12.8141-13.7933,24.6593-19.0959,37.7234
						c-2.5941,6.0215-3.7922,12.835-2.5004,19.2003c2.6982,5.9174,7.6677,10.72,13.3037,14.0642
						c11.9806,7.4592,25.326,12.3973,37.6298,19.3044c22.0443,9.3762,45.6201,14.3976,68.1854,22.3882
						c-4.8027,3.6046-11.1471,6.5634-11.9285,13.2516c14.658,7.4801,31.9623,6.0945,46.8495,13.0016
						c-10.4701,6.5946-26.8783,4.0839-32.6499,17.0751c29.2433,1.4897,61.1951,6.0424,83.4061,26.9512
						c15.4602,14.0746,18.4814,37.9839,10.5013,56.6841c-4.2819,6.6154-12.7723,8.0218-20.0546,7.9592
						c-8.8448-0.1354-17.6584,0.4376-26.4513,1.1356c-2.8231-0.2396-4.6567,1.9794-6.5736,3.5838
						c23.2216,16.1061,49.5686,32.6395,60.0908,60.2783c-0.7502,20.2629-16.1582,36.7858-17.1167,57.0904
						c-0.6355,9.5949,4.1774,18.3148,8.7302,26.3782c13.3766,22.4611,34.1605,39.2236,55.7047,53.465
						c-35.7128-16.1062-65.7372-42.7761-90.2819-72.9882c-47.0892-58.1739-76.5616-127.797-118.1918-189.5963
						c-21.0859-31.3893-45.7036-61.0284-76.2908-83.6354c-10.1158-7.9177-21.5861-13.8246-32.2957-20.8359
						c-3.1357-2.4273-6.334-4.761-9.5636-7.0321c1.2814-3.74,2.5002-7.5009,3.5941-11.3139
						c4.5527-11.9598,10.366-23.4821,13.8872-35.8378c11.4597-36.2649,13.9496-74.7071,12.5641-112.5035
						c-2.6462-74.4675-19.7212-148.1225-15.825-222.8505c2.1045-38.8798,10.7096-78.093,30.1393-112.1284
						C1331.4667,168.6406,1324.5178,194.4147,1326.8932,220.4492z M936.6574,147.7735
						c22.5966-20.7422,49.0685-37.9214,78.5306-47.0475c-9.1992,11.9286-18.6273,24.2843-22.8154,38.9945
						c-0.9481,3.8025-2.5212,7.4072-4.636,10.668c-4.1046-9.2824,5.2402-21.5547-4.8338-28.6702
						c-16.0853,7.7301-23.9301,24.6489-29.9099,40.4425c-1.6149-4.886,1.7918-12.0327-3.2088-15.1373
						c-33.723,23.1591-48.1309,64.3413-78.9369,90.5008c-1.8336,1.521-3.8754,2.7816-5.9277,3.9796
						C884.3279,207.1871,907.6643,174.6831,936.6574,147.7735z M792.1603,110.3522c-6.3445-30.0454,0.9897-63.1953,22.5966-85.646
						c14.3663,16.9083,23.2528,37.6713,29.0348,58.9031c3.2192,11.4702,5.7925,23.1487,8.4178,34.8064
						c2.6357-11.6577,5.209-23.3362,8.428-34.8064c5.782-21.2318,14.6686-41.9948,29.035-58.9031
						c21.6068,22.4507,28.9307,55.6006,22.5965,85.646c-9.5012,47.7559-36.8691,88.5943-60.0594,130.7036
						C829.0192,198.9465,801.6616,158.1081,792.1603,110.3522z M767.772,147.7735c28.9931,26.9096,52.3293,59.4136,71.738,93.7303
						c-2.0524-1.198-4.0943-2.4586-5.9279-3.9796c-30.8058-26.1595-45.2138-67.3417-78.9368-90.5008
						c-5.0005,3.1046-1.5939,10.2513-3.2087,15.1373c-5.9799-15.7936-13.835-32.7124-29.9099-40.4425
						c-10.0742,7.1155-0.7294,19.3878-4.834,28.6702c-2.1149-3.2608-3.688-6.8655-4.6359-10.668
						c-4.188-14.7102-13.6163-27.0659-22.8153-38.9945C718.7033,109.8521,745.1755,127.0313,767.772,147.7735z M463.5677,157.9414
						c9.074,1.8439,18.8565,3.7296,27.7847,0.1562c19.0128-7.1779,29.962-26.9408,49.006-33.9209
						c29.5349,1.469,53.392,21.4193,75.8949,38.5256c0.9271-2.3128,2.4794-4.7402,1.3854-7.3655
						c-2.0627-8.574-4.2401-17.1271-7.105-25.4928c-2.3128-6.9175-3.5942-15.4186,1.3751-21.5443
						c15.325-13.3662,38.9842-17.8772,57.153-7.5322c26.7532,14.6685,40.9531,43.6512,51.4126,71.0088
						c10.5638-9.5116,3.115-24.3363,6.1466-36.3378c11.168,12.0224,15.1998,28.9098,26.8367,40.5363
						c6.1257-2.8024,6.9695-9.7512,8.9177-15.4394c14.5748,18.9919,26.6282,39.8695,42.3699,57.9342
						c10.3658,9.5637,19.1898,20.7422,29.9829,29.8162c4.9172,4.3339,11.0222,7.5739,17.4813,8.3239
						c6.4591-0.75,12.564-3.99,17.4917-8.3239c10.793-9.074,19.6169-20.2525,29.9829-29.8162
						c15.7415-18.0647,27.7847-38.9423,42.3594-57.9342c1.948,5.6882,2.8024,12.637,8.9177,15.4394
						c11.6473-11.6265,15.679-28.5139,26.8471-40.5363c3.0317,12.0015-4.4172,26.8262,6.1466,36.3378
						c10.4597-27.3576,24.6592-56.3403,51.4126-71.0088c18.1689-10.345,41.8281-5.8341,57.1528,7.5322
						c4.9695,6.1258,3.6881,14.6269,1.3752,21.5443c-2.8649,8.3656-5.0424,16.9187-7.1051,25.4928
						c-1.0939,2.6253,0.4584,5.0527,1.3857,7.3655c22.4922-17.1063,46.3599-37.0567,75.8947-38.5256
						c19.0441,6.98,29.9933,26.7429,49.0061,33.9209c8.9282,3.5734,18.7106,1.6877,27.7847-0.1562
						c25.4927-5.782,47.8706-20.3567,68.0604-36.4421c-26.3574,28.9828-60.9971,49.2873-97.314,63.2995
						c-69.8733,26.8054-145.1952,33.327-216.829,53.8192c-36.3794,10.3555-72.1755,24.6072-103.1273,46.7141
						c-10.6575,7.1676-19.815,16.2625-29.7952,24.2842c-3.2818,2.219-6.48,4.5423-9.647,6.9175
						c-3.1567-2.3752-6.3655-4.6985-9.647-6.9175c-9.97-8.0218-19.1274-17.1167-29.7954-24.2842
						c-30.9517-22.1069-66.7375-36.3586-103.1169-46.7141c-71.6339-20.4922-146.9556-27.0137-216.8289-53.8192
						c-36.317-14.0122-70.9567-34.3167-97.3245-63.2995C415.6972,137.5847,438.0749,152.1595,463.5677,157.9414z M273.8567,506.6304
						c-12.7411-27.9098-20.8984-58.3927-20.4817-89.2298c8.501,12.4286,17.3459,25.2219,30.0453,33.7438
						c3.3129,2.0836,6.2612,4.6881,8.7094,7.7093c-10.0949,1.0314-18.8773-11.6473-28.7639-4.2609
						c2.3753,17.6792,16.0437,30.3787,29.2224,40.9425c-5.1568,0.0208-10.8972-5.4278-15.3977-1.6252
						c11.6056,39.2236,46.3286,65.654,61.6847,103.0336c0.8855,2.2189,1.4481,4.5526,1.9482,6.8758
						C314.1846,574.7534,290.4838,542.5098,273.8567,506.6304z M193.6072,632.4897c-30.535-3.2608-59.7887-20.4713-74.4676-47.9643
						c20.513-8.4385,43.0158-10.47,64.9976-9.4073c11.8973,0.4792,23.7946,1.646,35.7024,2.7502
						c-10.2825-6.1049-20.5859-12.1682-30.5038-18.7731c-18.4085-12.064-35.4106-26.9305-47.0475-45.8182
						c28.0243-13.6058,61.8201-10.3346,88.438,4.9799c42.4844,23.7946,72.8736,62.4348,105.7526,97.5016
						C289.2648,624.8013,241.9673,638.2092,193.6072,632.4897z M221.6732,667.244c34.5355-19.2524,72.6653-31.4102,111.3054-39.2653
						c-1.7815,1.5836-3.6046,3.1358-5.6256,4.4172c-34.3897,21.2109-78.0097,22.1798-110.4616,47.0996
						c1.4064,5.7194,9.2616,4.688,13.4079,7.7301c-16.8667,0.8126-35.3898,3.042-47.7038,15.9499
						c3.6567,11.7827,18.2106,6.6883,25.774,13.46c-3.7505,1.0001-7.6676,1.3752-11.5743,1.1147
						c-15.2936-0.573-29.9516,4.5839-44.1409,9.6366C170.4376,702.1962,194.9615,682.3292,221.6732,667.244z M81.635,1013.1722
						c21.5443-14.2413,42.3177-31.0038,55.7048-53.465c4.5526-8.0635,9.3657-16.7833,8.7302-26.3782
						c-0.9585-20.3046-16.3666-36.8275-17.1167-57.0904c10.5221-27.6388,36.8691-44.1722,60.0803-60.2783
						c-1.9065-1.6044-3.7401-3.8234-6.5633-3.5838c-8.7928-0.698-17.6064-1.2711-26.4512-1.1356
						c-7.2822,0.0626-15.7728-1.3439-20.0546-7.9592c-7.9802-18.7003-4.959-42.6095,10.5013-56.6841
						c22.211-20.9088,54.1629-25.4615,83.4061-26.9512c-5.7716-12.9911-22.1799-10.4805-32.6499-17.0751
						c14.8872-6.9071,32.1915-5.5215,46.8496-13.0016c-0.7918-6.6883-7.1259-9.647-11.939-13.2516
						c22.5653-7.9905,46.1411-13.012,68.196-22.3882c12.3036-6.9071,25.649-11.8452,37.6296-19.3044
						c5.6361-3.3442,10.6055-8.1469,13.3037-14.0642c1.2918-6.3654,0.0938-13.1788-2.5003-19.2003
						c-5.3028-13.0641-13.1996-24.9094-19.0961-37.7234c-12.3245-20.5546-28.4514-38.4631-42.0052-58.1946
						c6.0007-0.0938,12.8766,1.2397,17.4396-3.7088c-7.4592-14.6685-22.2736-23.7217-30.2537-38.0568
						c12.3452,0.8231,24.1384,12.4911,36.4524,5.3861c-22.7841-18.4086-45.964-40.8697-51.6418-70.8421
						c-4.2297-20.4713,7.3759-41.5885,24.8156-52.0273c7.3655-2.8337,15.054,1.0105,20.9193,5.3444
						c7.0633,5.3132,14.5331,10.0325,22.0548,14.6373c2.1461,1.8544,4.9381,1.1355,7.428,0.9584
						c-9.3137-26.6804-20.9193-55.5381-13.1891-84.0833c12.5223-15.9499,34.7022-20.2629,47.412-36.1295
						c6.157-7.3863,7.3864-17.273,8.4386-26.472c2.3753-26.0345-4.5839-51.8085-13.6371-75.999
						c19.4191,34.0354,28.0348,73.2486,30.1391,112.1284c3.8964,74.728-13.1787,148.3829-15.8249,222.8505
						c-1.396,37.7964,1.1043,76.2386,12.5641,112.5035c3.5213,12.3557,9.3345,23.878,13.8871,35.8378
						c1.0939,3.813,2.3128,7.5739,3.5942,11.3139c-3.24,2.2711-6.4383,4.6048-9.5637,7.0321
						c-10.7097,7.0114-22.1799,12.9183-32.2957,20.8359c-30.5871,22.6069-55.2047,52.246-76.2907,83.6354
						c-41.6302,61.7993-71.113,131.4224-118.1917,189.5963C147.3619,970.3961,117.3478,997.066,81.635,1013.1722z
						 M410.3319,1247.8783c-30.4829,3.4901-61.9868,1.8335-91.1883-8.0948c14.4497-4.2505,29.3369-8.699,41.3697-18.1376
						c3.0108-2.5211,6.3966-4.5215,10.0221-5.907c-2.1357,9.918-16.9083,14.356-12.9391,26.0344
						c17.5542,3.1982,33.8479-5.8757,47.9642-15.1372c-1.5627,4.9069-8.5219,8.6885-6.2924,14.1372
						c40.8905,1.0834,76.7491-23.7634,117.0457-26.8263c2.3857-0.1459,4.7819,0.0311,7.1364,0.2708
						C487.5811,1230.5741,449.5972,1243.1484,410.3319,1247.8783z M505.2291,1363.0905
						c-12.5328,28.0347-37.9423,50.5376-68.6231,56.007c-1.6877-22.1277,3.3337-44.141,11.1368-64.7268
						c4.1359-11.1681,8.9178-22.1278,13.6475-33.1083c-8.9907,7.8864-17.9293,15.8248-27.2742,23.2112
						c-17.1688,13.783-36.5566,25.3574-58.1218,30.5873c-4.2818-30.8582,9.272-61.9869,32.0665-82.5728
						c35.7544-33.0562,81.8955-50.0062,125.4114-70.4464C527.4818,1269.7455,525.617,1318.8662,505.2291,1363.0905z
						 M587.3018,1386.4058c-5.2611,14.3665-4.8965,29.91-4.4694,44.964c-18.471-24.7009-29.7849-54.163-35.8794-84.2292
						c-7.6364-38.7964-7.4072-78.8223-2.9379-117.9833c0.948,2.167,1.8647,4.3859,2.4586,6.6986
						c9.5428,39.2654-3.0108,81.0623,10.6576,119.6191c5.8757,0.427,7.3134-7.3552,11.5014-10.3658
						c-4.4485,16.2936-8.0427,34.598,0.4271,50.2979c12.3348,0.1666,11.9807-15.252,20.7629-20.3567
						C589.6145,1378.9362,588.7602,1382.7699,587.3018,1386.4058z M799.0467,1517.7241
						c-6.2612-6.8237-13.0641-14.0955-22.3882-16.45c-19.6066-5.3651-40.0883,4.1776-59.5908-1.3647
						c-23.0341-18.5439-30.608-48.7144-38.7549-75.7699c-2.1147,1.3127-4.7921,2.3754-5.4485,5.1361
						c-3.365,8.1469-6.6361,16.3563-9.2406,24.8053c-2.1983,6.9487-6.157,14.5851-13.7725,16.6166
						c-20.2526,1.8024-42.0574-8.449-50.6627-27.5034c-13.0224-27.5868-7.48-59.3823,0.1356-87.667
						c-14.1372,1.4896-16.8146,17.8667-26.3262,25.7844c-1.969-16.2938,4.6985-32.3165,2.1148-48.5686
						c-6.6049-1.3231-11.3764,3.7922-16.2936,7.251c-0.6251-23.9302,1.8857-47.9019-0.2188-71.7693
						c-2.7711-13.8351-3.3337-28.0555-6.73-41.7552c-1.4377-6.3966-4.4693-12.6056-9.2615-17.0021
						c-5.657-3.1982-12.5015-4.1567-19.0336-3.5526c-14.0746,1.0002-27.7743,4.8549-41.7864,6.5009
						c-23.3467,5.3654-45.3703,15.1686-68.321,21.9716c1.7607-5.7404,5.1569-11.8661,1.8648-17.7418
						c-16.2624,2.5732-29.4412,13.8663-45.5473,17.0231c4.5943-11.4911,19.3357-19.0962,16.377-33.0042
						c-24.5343,15.9811-53.0586,31.0767-83.3228,27.222c-20.7838-2.3022-37.2755-19.8671-41.8073-39.682
						c-0.4271-7.876,5.6153-14.0017,11.5431-18.2419c7.23-5.0837,14.033-10.7303,20.7317-16.4498
						c2.4274-1.4794,2.6045-4.3547,3.2087-6.7716c-28.2535,0.6146-59.2886,2.7295-84.0416-13.4497
						c-11.3035-16.8248-8.5532-39.2548-19.7108-56.2465c-5.1257-8.1365-14.1372-12.3557-22.5653-16.2
						c-24.0238-10.3137-50.6937-11.6577-76.4886-10.5221c38.3589-7.9594,78.3222-4.0214,115.9414,5.9902
						c72.2798,19.3878,137.0482,58.3823,207.0569,83.9063c35.5148,13.0016,72.8423,22.5132,110.8783,22.8258
						c12.8349,0.4584,25.5969-1.5002,38.3798-2.1357c3.9588,0.1355,7.9176,0.1355,11.866,0.073
						c1.1668,3.7816,2.3961,7.5426,3.7401,11.2722c3.3546,12.3452,5.4277,25.0863,9.8345,37.1504
						c12.0432,36.0773,32.6291,68.6438,55.9652,98.408c45.912,58.6844,103.0129,108.2322,143.7886,170.99
						c21.1485,32.681,37.2338,69.4773,41.5261,108.4196C825.7999,1562.3339,816.2676,1537.3933,799.0467,1517.7241z
						 M864.5338,1569.6473c-8.7197-35.369-0.6875-72.7069,13.8351-105.4089c13.8768-32.629,35.2023-61.3097,57.9135-88.2715
						c18.6689-22.6486,39.2548-43.7554,56.1318-67.8519c16.4708-22.9299,30.8581-47.3914,43.1096-72.8215
						c6.9905-14.1476,12.366-29.014,19.9087-42.87c7.0634-13.7307,14.9707-29.0452,10.8867-44.9535
						c-12.3348,10.2826-11.9285,27.7848-18.5021,41.3385c-8.272,14.6268-15.825,29.7017-25.597,43.4324
						c-15.4082,22.1278-33.4,42.297-52.1315,61.6327c-4.6359,4.761-9.001,9.8555-14.4393,13.7205
						c-2.7712-15.7312,6.7197-29.9515,7.428-45.3494c0.4271-4.7924-3.4484-7.678-7.553-8.8135
						c-15.8874,32.9309-35.2856,64.6433-60.768,91.0945c-12.4286,12.8766-26.7637,24.2739-42.5468,32.8792
						c-15.7729-8.6052-30.1185-20.0026-42.547-32.8792c-25.4719-26.4512-44.8702-58.1636-60.7576-91.0945
						c-4.1046,1.1355-7.9801,4.0211-7.553,8.8135c0.7085,15.3978,10.1992,29.6182,7.4282,45.3494
						c-5.4382-3.865-9.8138-8.9595-14.4394-13.7205c-18.7315-19.3357-36.7338-39.5049-52.1314-61.6327
						c-9.772-13.7307-17.3251-28.8055-25.5969-43.4324c-6.5842-13.5537-6.1676-31.0559-18.5023-41.3385
						c-4.0839,15.9083,3.8129,31.2228,10.8867,44.9535c7.5322,13.856,12.9182,28.7224,19.9087,42.87
						c12.2515,25.4302,26.6282,49.8916,43.1095,72.8215c16.877,24.0966,37.4629,45.2034,56.132,67.8519
						c22.7111,26.9618,44.0366,55.6425,57.9133,88.2715c14.5226,32.702,22.5445,70.0399,13.8351,105.4089
						c-2.9692-7.3969-4.5319-15.2312-7.1467-22.7321c-12.2724-37.088-33.1187-70.717-57.0071-101.4084
						c-44.2033-57.0071-98.4497-105.7214-139.2359-165.4684c-22.086-32.3998-39.5778-68.5813-46.6412-107.3778
						c-1.1461-6.8655-4.011-13.2516-6.0945-19.8462c-6.9175,0.0521-13.8663-0.6875-20.7526,0.3439
						c-39.0882,5.261-78.9056-0.1876-116.5457-11.1785c-69.4253-20.3359-132.5164-56.8717-200.3893-81.2914
						c-36.5775-13.2411-74.9885-22.6696-114.0662-22.8778c-7.9385-0.1771-15.877,0.7605-23.8259,0.2291
						c30.9413-19.2211,68.9357-23.1279,104.5338-19.4191c35.3065,3.1151,69.1856,14.5331,101.8355,27.8055
						c27.3158,10.7512,53.7462,23.8051,81.8747,32.4103c26.9095,8.5844,54.6109,14.6998,82.5935,18.4918
						c15.6061,2.2816,31.4102,2.8025,46.9121,5.6882c15.2518,2.4795,32.2539,5.2611,46.1202-3.5316
						c-13.585-8.5531-30.1078-2.7504-45.0368-4.8235c-16.4604-3.3444-33.1291-5.8757-49.2144-10.9286
						c-25.7949-7.8031-50.5479-18.6898-74.728-30.5245c-5.9486-2.9379-12.1473-5.5215-17.5022-9.5012
						c14.0955-7.4905,30.5559-2.8545,45.4223-6.9382c4.6881-1.0836,6.2299-5.657,6.0528-9.918
						c-36.2337-4.9277-72.384-13.585-105.4089-29.6391c-16.0957-7.8343-31.3685-17.9501-44.4221-30.2954
						c3.3025-17.6688,9.72-34.8272,18.1168-50.6312c17.2834-32.3998,41.453-60.6533,67.8625-85.9377
						c-2.3544-3.5526-6.2924-6.3445-10.7201-4.4589c-14.4288,5.4278-25.0239,18.8461-40.828,21.0756
						c1.9898-6.3655,5.4903-12.0953,8.5844-17.971c12.5953-23.7842,26.222-47.1412,42.5052-68.623
						c10.0429-13.533,22.0444-25.3782,33.4-37.7651c10.8451-10.4493,27.6284-15.4707,33.5979-30.3684
						c-16.3874,1.0314-28.5139,13.2725-39.3903,24.2426c-10.8555,11.4493-23.3258,21.1693-34.6189,32.181
						c-20.3984,19.5129-39.2236,40.7447-55.9444,63.4974c-17.6897,23.5029-31.4101,49.5999-47.1829,74.353
						c-18.6169,29.9308-39.3069,59.0802-66.0499,82.3643c-26.6179,23.9197-59.6532,43.0887-95.9806,45.7244
						c6.1153-5.1047,13.0954-9.0115,19.4087-13.8246c31.4935-23.1278,57.0279-53.3399,78.8327-85.5522
						c40.5571-59.6531,70.1233-126.2968,114.3371-183.554c23.9925-31.0142,53.0066-58.8301,87.7191-77.5408
						c6.1779-3.2087,11.366-7.8967,16.9917-11.9286c-2.1877-6.5529-3.6254-13.3975-6.7404-19.6274
						c-17.0855-35.546-24.2009-75.103-25.3781-114.2954c-2.1149-72.311,13.1266-143.6011,15.3873-215.7038
						c1.2814-38.8694-1.6148-78.3222-13.4912-115.5455c-2.292-7.6051-5.6361-14.8664-7.5739-22.5965
						c27.8368,23.4925,43.2866,58.4135,50.7667,93.4178c7.9489,34.5459,7.553,70.2899,5.0215,105.4505
						c-1.7919,29.2953-6.032,58.4656-5.5215,87.8859c0.1459,28.2326,2.8858,56.4757,7.9281,84.2605
						c2.6566,15.5435,7.0425,30.7329,9.0845,46.3702c2.3544,15.2728,4.9693,32.3061,17.6167,42.7761
						c3.938-15.5644-6.6883-29.4932-9.3241-44.3284c-1.9064-16.6896-4.6568-33.327-4.8235-50.1833
						c-0.5417-26.9408,2.1565-53.84,5.9487-80.4996c0.948-6.5633,1.4897-13.262,3.6254-19.5857
						c11.4702,11.0951,12.1578,28.1805,20.638,41.0572c2.4691,4.1255,7.303,4.1776,11.2931,2.6878
						c-6.5008-35.9731-9.4491-73.0403-4.386-109.4093c2.4899-17.7209,7.3864-35.3794,15.0956-51.6106
						c17.8147-2.3128,36.1191-1.521,53.7462,1.594c36.1607,6.4279,70.4878,20.6796,102.7003,37.9838
						c2.6461-3.3337,4.0942-7.9489,0.9271-11.5743c-9.6262-12.0432-25.6593-17.9709-32.6603-32.3165
						c6.6675-0.0729,13.1996,1.4794,19.7421,2.6045c26.524,4.636,52.944,10.3763,78.4055,19.2211
						c15.9706,5.3653,30.9413,13.1266,46.2347,20.0963c13.2829,7.0946,23.253,21.5026,39.2654,22.5652
						c-6.0425-15.2727-21.4401-23.0132-35.2335-29.9725c-14.2415-6.7717-27.3367-15.6373-41.2969-22.9716
						c-24.8571-13.3766-50.8708-24.7114-77.6866-33.5771c-27.816-9.5741-56.8716-14.5539-85.2918-21.909
						c-34.2126-8.4594-68.3314-19.1273-98.731-37.3588c-30.983-17.9293-59.4136-43.422-73.1548-77.1554
						c6.7404,4.2401,12.6161,9.6679,19.1482,14.1893c31.7227,22.7945,68.3522,37.7442,105.7214,48.5373
						c69.269,20.1379,141.778,27.6597,209.9009,52.0168c36.9109,13.2412,72.3319,32.2331,100.8562,59.4657
						c4.9589,4.8756,11.0223,8.3656,16.5855,12.4702c5.5735-4.1047,11.6263-7.5947,16.5958-12.4702
						c28.5244-27.2326,63.9454-46.2245,100.8563-59.4657c68.1125-24.3572,140.632-31.879,209.9009-52.0168
						c37.369-10.793,73.9883-25.7428,105.7214-48.5373c6.532-4.5214,12.3972-9.9491,19.1481-14.1893
						c-13.7412,33.7334-42.1824,59.2261-73.1549,77.1554c-30.3995,18.2314-64.5183,28.8994-98.7413,37.3588
						c-28.4097,7.3551-57.4655,12.3349-85.2813,21.909c-26.8159,8.8657-52.8295,20.2004-77.6868,33.5771
						c-13.96,7.3343-27.0658,16.1999-41.2966,22.9716c-13.7935,6.9593-29.1912,14.6998-35.244,29.9725
						c16.0228-1.0627,25.9823-15.4706,39.2756-22.5652c15.2832-6.9696,30.2642-14.731,46.235-20.0963
						c25.4614-8.8448,51.8814-14.5851,78.4055-19.2211c6.5425-1.1251,13.0746-2.6774,19.7421-2.6045
						c-7.0009,14.3456-23.0447,20.2733-32.6708,32.3165c-3.1567,3.6255-1.7189,8.2407,0.9377,11.5743
						c32.2018-17.3042,66.5393-31.556,102.7001-37.9838c17.6168-3.115,35.9211-3.9067,53.7462-1.594
						c7.7092,16.2312,12.6057,33.8896,15.0957,51.6106c5.0631,36.369,2.1149,73.4362-4.386,109.4093
						c3.9901,1.4898,8.824,1.4377,11.2931-2.6878c8.4802-12.8766,9.1572-29.9621,20.6378-41.0572
						c2.1357,6.3237,2.6775,13.0224,3.6255,19.5857c3.7819,26.6596,6.4905,53.5587,5.9487,80.4996
						c-0.1667,16.8563-2.917,33.4937-4.8235,50.1833c-2.6359,14.8351-13.2621,28.764-9.3241,44.3284
						c12.6473-10.47,15.2622-27.5034,17.6063-42.7761c2.0522-15.6373,6.4384-30.8267,9.0948-46.3702
						c5.0424-27.7848,7.7822-56.0278,7.9281-84.2605c0.5105-29.4203-3.7401-58.5905-5.5215-87.8859
						c-2.5315-35.1606-2.9275-70.9046,5.0215-105.4505c7.48-35.0043,22.9299-69.9253,50.7667-93.4178
						c-1.9484,7.7301-5.2925,14.9914-7.574,22.5965c-11.8765,37.2233-14.7726,76.6761-13.4911,115.5455
						c2.2605,72.1027,17.5021,143.3928,15.3873,215.7038c-1.1774,39.1924-8.2928,78.7494-25.3783,114.2954
						c-3.115,6.2299-4.5526,13.0745-6.7404,19.6274c5.6256,4.0319,10.8138,8.7199,16.9917,11.9286
						c34.7126,18.7107,63.7162,46.5266,87.7087,77.5408c44.2241,57.2571,73.7904,123.9008,114.3474,183.554
						c21.8048,32.2123,47.3392,62.4244,78.8326,85.5522c6.3134,4.8132,13.2933,8.7199,19.4088,13.8246
						c-36.338-2.6357-69.3629-21.8047-95.9808-45.7244c-26.7428-23.2841-47.433-52.4335-66.0497-82.3643
						c-15.7728-24.7531-29.4933-50.85-47.183-74.353c-16.7313-22.7527-35.546-43.9846-55.9443-63.4974
						c-11.2932-11.0117-23.7738-20.7317-34.6189-32.181c-10.8763-10.9702-23.0029-23.2112-39.3903-24.2426
						c5.9694,14.8977,22.7424,19.9191,33.5979,30.3684c11.3555,12.3869,23.3569,24.2321,33.4,37.7651
						c16.2831,21.4818,29.8994,44.8389,42.5051,68.623c3.0942,5.8757,6.5945,11.6055,8.5844,17.971
						c-15.8145-2.2295-26.399-15.6478-40.828-21.0756c-4.4276-1.8856-8.376,0.9064-10.72,4.4589
						c26.4095,25.2844,50.5686,53.5379,67.8522,85.9377c8.4073,15.804,14.8247,32.9624,18.1271,50.6312
						c-13.0536,12.3453-28.3368,22.4611-44.422,30.2954c-33.0249,16.0541-69.1753,24.7114-105.4088,29.6391
						c-0.1877,4.261,1.3646,8.8344,6.0527,9.918c14.8663,4.0837,31.3163-0.5522,45.4222,6.9382
						c-5.3549,3.9797-11.5536,6.5634-17.5022,9.5012c-24.1904,11.8347-48.9331,22.7214-74.7279,30.5245
						c-16.0853,5.0529-32.754,7.5842-49.2249,10.9286c-14.9185,2.0731-31.4413-3.7296-45.0264,4.8235
						c13.8663,8.7927,30.8684,6.0111,46.1202,3.5316c15.502-2.8857,31.306-3.4066,46.9121-5.6882
						c27.9722-3.792,55.684-9.9075,82.5831-18.4918c28.1389-8.6052,54.5692-21.6591,81.8746-32.4103
						c32.6603-13.2725,66.5292-24.6905,101.8458-27.8055c35.5984-3.7088,73.5927,0.1979,104.5339,19.4191
						c-7.949,0.5314-15.8875-0.4063-23.8363-0.2291c-39.0674,0.2083-77.4784,9.6367-114.0558,22.8778
						c-67.8729,24.4197-130.9641,60.9554-200.3893,81.2914c-37.6403,10.9908-77.4576,16.4395-116.5458,11.1785
						c-6.8861-1.0314-13.835-0.2917-20.7526-0.3439c-2.0835,6.5946-4.9485,12.9807-6.0946,19.8462
						c-7.0632,38.7965-24.5549,74.978-46.641,107.3778c-40.7968,59.7469-95.0327,108.4613-139.236,165.4684
						c-23.8883,30.6914-44.7347,64.3204-57.007,101.4084C869.0657,1554.4161,867.5031,1562.2505,864.5338,1569.6473z
						 M1157.4661,1347.1405c-6.0946,30.0663-17.4084,59.5283-35.8693,84.2292c0.4274-15.054,0.7919-30.5975-4.4691-44.964
						c-1.469-3.6359-2.3127-7.4696-2.5212-11.3555c8.772,5.1047,8.4282,20.5233,20.7631,20.3567
						c8.4698-15.6998,4.8756-34.0043,0.4271-50.2979c4.1881,3.0106,5.6256,10.7928,11.5015,10.3658
						c13.6682-38.5569,1.1147-80.3538,10.6576-119.6191c0.5938-2.3127,1.5105-4.5316,2.4585-6.6986
						C1164.8835,1268.3182,1165.1127,1308.3441,1157.4661,1347.1405z M1296.3685,1292.488
						c22.7946,20.5858,36.3484,51.7146,32.0664,82.5728c-21.5651-5.2299-40.9633-16.8043-58.1218-30.5873
						c-9.3448-7.3864-18.2938-15.3248-27.274-23.2112c4.7297,10.9805,9.5116,21.9402,13.6476,33.1083
						c7.8031,20.5858,12.8245,42.5991,11.1367,64.7268c-30.6808-5.4694-56.0903-27.9723-68.623-56.007
						c-20.3878-44.2242-22.2527-93.345-28.243-141.0488C1214.473,1242.4818,1260.6141,1259.4319,1296.3685,1292.488z
						 M1294.0974,1247.8783c-39.2651-4.7299-77.2594-17.3042-113.1285-33.6605c2.3647-0.2396,4.7506-0.4166,7.1364-0.2708
						c40.2965,3.0629,76.1656,27.9097,117.056,26.8263c2.2191-5.4487-4.7296-9.2303-6.3027-14.1372
						c14.1267,9.2615,30.4204,18.3354,47.9746,15.1372c3.9691-11.6785-10.8035-16.1165-12.9392-26.0344
						c3.6255,1.3855,7.0114,3.3859,10.0222,5.907c12.0327,9.4386,26.92,13.8871,41.3698,18.1376
						C1356.0842,1249.7118,1324.5699,1251.3684,1294.0974,1247.8783z M1534.2313,1060.8447
						c-8.4281,3.8442-17.4501,8.0635-22.5652,16.2c-11.1577,16.9917-8.4073,39.4216-19.7109,56.2465
						c-24.7529,16.1792-55.7881,14.0643-84.0416,13.4497c0.6044,2.4169,0.7814,5.2922,3.2089,6.7716
						c6.6986,5.7195,13.4912,11.3661,20.7316,16.4498c5.9277,4.2402,11.9702,10.366,11.5432,18.2419
						c-4.5319,19.8149-21.0339,37.3798-41.8179,39.682c-30.2537,3.8546-58.778-11.241-83.3228-27.222
						c-2.9585,13.908,11.7932,21.5131,16.3875,33.0042c-16.1061-3.1567-29.2952-14.4498-45.5472-17.0231
						c-3.292,5.8757,0.1042,12.0015,1.8649,17.7418c-22.9508-6.803-44.9742-16.6062-68.3314-21.9716
						c-14.0017-1.646-27.7117-5.5006-41.7759-6.5009c-6.5321-0.6041-13.3768,0.3544-19.0337,3.5526
						c-4.7924,4.3965-7.8239,10.6055-9.2616,17.0021c-3.3962,13.6997-3.9691,27.9202-6.7301,41.7552
						c-2.1147,23.8674,0.4065,47.8391-0.2186,71.7693c-4.9174-3.4587-9.6888-8.5741-16.2936-7.251
						c-2.5836,16.2521,4.0837,32.2748,2.1147,48.5686c-9.5116-7.9177-12.189-24.2948-26.3365-25.7844
						c7.6259,28.2847,13.1682,60.0802,0.1458,87.667c-8.6157,19.0544-30.4099,29.3058-50.6624,27.5034
						c-7.6156-2.0315-11.585-9.6678-13.7727-16.6166c-2.6045-8.449-5.8757-16.6584-9.2407-24.8053
						c-0.6563-2.7607-3.3336-3.8234-5.4485-5.1361c-8.147,27.0555-15.7208,57.226-38.7652,75.7699
						c-19.5024,5.5424-39.9738-4.0004-59.5804,1.3647c-9.3242,2.3545-16.127,9.6262-22.3882,16.45
						c-17.2208,19.6692-26.7534,44.6097-33.6395,69.4982c4.2921-38.9423,20.3774-75.7385,41.5258-108.4196
						c40.7656-62.7578,97.8768-112.3055,143.7887-170.99c23.3362-29.7642,43.9221-62.3307,55.9652-98.408
						c4.4067-12.0641,6.48-24.8052,9.8346-37.1504c1.3438-3.7296,2.5734-7.4906,3.7296-11.2722
						c3.9589,0.0625,7.9177,0.0625,11.8765-0.073c12.7828,0.6355,25.5344,2.5941,38.3796,2.1357
						c38.036-0.3126,75.3636-9.8242,110.8784-22.8258c70.0087-25.5239,134.7771-64.5184,207.0569-83.9063
						c37.6191-10.0116,77.5825-13.9496,115.9413-5.9902C1584.925,1049.187,1558.2551,1050.531,1534.2313,1060.8447z"/>
					<path fill="#0C0C0C" d="M1306.1824,907.2216c-8.1156-26.2949-17.2939-52.2877-27.8993-77.6867
						c-18.0962-42.9011-42.8804-83.7812-77.9159-114.9934c10.0532-10.2303,0.5834-23.8154-5.4174-33.4103
						c14.2308,0.3021,28.9618-6.3759,35.8273-19.3149c0.3542-0.5938,0.6771-1.1981,0.9896-1.8023
						c-0.6145-0.3125-1.2292-0.6147-1.8647-0.8856c-13.1578-6.4279-29.0035-3.1774-40.3383,5.4382
						c-0.7814-11.2931-1.1042-27.8472-15.252-30.2225c10.0012-45.839,6.0216-93.4803-4.5526-138.8192
						c-6.3549-26.7846-14.1997-53.2045-23.0967-79.2598c-2.9899-8.3864-6.2404-16.7208-9.5636-25.0447
						c-8.9386-0.5834-17.8772-1.1043-26.774-1.3543c-27.5244-0.4063-55.0695,0.2917-82.5103,2.5316
						c-46.3912,3.9588-92.9387,14.8872-133.4436,38.5673c-6.6259-12.7203-22.4716-7.9177-33.4521-5.1673
						c4.688-13.4496,2.8858-29.5245-7.2925-40.057c-0.4584-0.5105-0.9271-1.0105-1.4167-1.4898
						c-0.4793,0.4792-0.9482,0.9793-1.4169,1.4898c-10.1679,10.5325-11.9807,26.6075-7.2822,40.057
						c-10.9805-2.7504-26.8367-7.553-33.4625,5.1673c-40.505-23.6801-87.0419-34.6085-133.4331-38.5673
						c-27.441-2.2399-54.986-2.9379-82.5101-2.5316c-8.9074,0.25-17.8356,0.7709-26.7742,1.3543
						c-3.3234,8.3239-6.5737,16.6583-9.5637,25.0447c-8.897,26.0553-16.7417,52.4752-23.0966,79.2598
						c-10.5742,45.339-14.5539,92.9803-4.5527,138.8192c-14.1476,2.3754-14.4705,18.9294-15.2518,30.2225
						c-11.3348-8.6157-27.1805-11.8661-40.3488-5.4382c-0.6251,0.2709-1.2501,0.5731-1.8544,0.8856
						c0.3125,0.6042,0.6355,1.2085,0.9793,1.8023c6.8758,12.9391,21.6068,19.617,35.8377,19.3149
						c-6.0007,9.5948-15.4706,23.1799-5.4173,33.4103c-35.0356,31.2122-59.8199,72.0923-77.9159,114.9934
						c-10.6055,25.399-19.7837,51.3918-27.8993,77.6867c-2.5212,8.5427-4.7819,17.2001-6.9905,25.8887
						c6.8967,5.7299,13.8142,11.3972,20.8672,16.825c22.0235,16.5125,44.7243,32.1394,68.2376,46.4641
						c39.859,24.0654,83.9374,42.5781,130.6308,47.2245c-2.1253,14.1893,13.5225,19.6171,24.0237,23.8468
						c-11.6993,8.1155-19.6899,22.1798-17.6481,36.692c0.073,0.6771,0.1668,1.3649,0.2709,2.0419
						c0.6773-0.1145,1.3439-0.2396,2.0211-0.3854c14.4288-2.5316,25.3364-14.4811,29.4412-28.1077
						c7.2717,8.6677,17.2625,21.8777,30.1079,15.4811c18.8461,42.9636,50.0688,79.166,85.2814,109.6385
						c20.8775,17.9292,42.7552,34.6918,65.2685,50.5375c7.3447,5.032,14.8769,9.8553,22.4507,14.6477
						c7.5842-4.7924,15.1165-9.6157,22.4611-14.6477c22.5027-15.8457,44.3909-32.6083,65.2685-50.5375
						c35.2023-30.4725,66.4354-66.6749,85.2814-109.6385c12.8453,6.3966,22.8362-6.8134,30.1079-15.4811
						c4.1046,13.6266,15.0122,25.576,29.4412,28.1077c0.6666,0.1458,1.3439,0.2709,2.021,0.3854
						c0.1042-0.677,0.1979-1.3647,0.2709-2.0419c2.0419-14.5122-5.9486-28.5765-17.6479-36.692
						c10.5013-4.2297,26.1489-9.6575,24.0238-23.8468c46.6932-4.6464,90.7716-23.1591,130.6307-47.2245
						c23.5134-14.3247,46.214-29.9516,68.2375-46.4641c7.053-5.4277,13.9705-11.0951,20.8672-16.825
						C1310.964,924.4216,1308.693,915.7643,1306.1824,907.2216z M1207.4097,664.379c3.8234-1.1251,7.7405-1.0835,11.4911-0.1875
						c-2.5109,2.9274-5.6571,5.2715-9.4075,6.605c-5.3341,2.094-10.9388,2.3128-16.5229,1.8231
						C1197.2001,668.9317,1201.8568,665.8167,1207.4097,664.379z M1177.8331,645.8455c7.2821,8.8136,0.8541,20.6381,3.9587,30.3997
						c3.2296,9.7199,15.3768,15.5123,14.6686,26.9304c-9.1783,3.6567-19.5651,6.282-26.4408,13.8558
						c-2.1461,1.719-2.9482,5.4486-5.9592,5.6465c-12.0431-8.2615-21.2838-19.3253-29.816-30.983
						c0.052-14.4393,1.021-28.8265,5.9069-42.5886c2.5524-1.6044,5.4069,0.9376,8.147,1.0731
						C1158.3098,652.2526,1168.2485,648.2833,1177.8331,645.8455z M1011.8126,401.4611
						c39.9839-5.0006,80.1036-4.563,120.2543-3.3129c13.5956,37.7963,26.4097,75.8218,34.0146,115.3892
						c6.4384,34.869,8.9491,71.0922,1.6669,106.0236c-12.512-47.7871-24.2738-96.0848-44.0575-141.5071
						c-6.084-13.7516-12.6056-27.4409-20.3567-40.3592c-7.3341-1.6877-14.7727-3.0211-22.2318-4.1359
						c-7.4594-1.1043-14.9603-1.9899-22.4403-2.7608c-49.3187-4.761-98.8871-1.0314-148.1954,1.8336
						C941.4392,414.9107,976.6624,406.1075,1011.8126,401.4611z M891.7039,446.7063
						c65.779-12.4286,134.7875-16.5854,200.1602,0.4375c1.2814,0.3334,2.5629,0.698,3.8442,1.0522
						c0.7292,1.1043,1.4689,2.2086,2.1876,3.3233c36.3901,56.9237,53.7567,123.8382,62.2682,190.2318
						c-7.2717-3.3233-16.8979-6.1465-23.5133,0.0938c-10.4491,10.4388-10.293,26.149-11.6161,39.8695
						c-2.8545-8.1781-3.8545-16.9917-4.0212-25.6178c2.542-23.1174,1.7606-46.6828-3.5839-69.3732
						c-8.1155-35.5252-27.1907-67.6646-50.7562-95.1367c-0.4479-0.5209-0.9167-1.0314-1.3647-1.5523
						c-0.6355-0.2708-1.2606-0.5521-1.9064-0.823c-33.4-13.9184-69.8629-22.1382-106.159-18.8669
						c-23.2217,1.9273-45.8807,8.4698-67.0812,18.0231c-8.2614,2.5107-16.9501,4.2817-25.6074,4.0942
						c12.6371-5.5006,27.6284-10.1992,34.3272-23.3675C902.7782,460.8747,897.1212,452.5924,891.7039,446.7063z M593.9483,599.4439
						c4.0423-28.7639,13.6789-57.0383,30.2225-81.0621c5.5633-8.2406,12.0328-15.7624,18.8671-22.9507
						c8.9594-4.2714,18.1063-8.1052,27.6595-10.8556c27.9618-8.3031,57.8301-8.7406,86.4379-3.6879
						c33.129,5.709,64.6329,17.7001,95.0742,31.7539c30.4517-14.0538,61.9556-26.0449,95.0846-31.7539
						c28.6078-5.0527,58.476-4.6151,86.4378,3.6879c9.5532,2.7504,18.7002,6.5842,27.6492,10.8556
						c6.8446,7.1884,13.3142,14.7101,18.8774,22.9507c16.5437,24.0238,26.1803,52.2982,30.212,81.0621
						c4.8131,33.275,3.1462,66.9458-0.8126,100.2416c22.7737,24.6072,43.9116,50.8708,59.5803,80.6141
						c13.6475,25.649,22.4611,54.1837,23.2007,83.3436c0.3439,9.9387-0.4792,19.8253-1.7815,29.6599
						c-4.7194,8.7198-9.8761,17.2001-15.9915,25.0344c-17.7313,23.1591-41.6405,41.0676-67.7583,53.7878
						c-30.16,14.8664-62.6953,23.6801-95.5848,30.2017c-16.3667,29.264-34.8064,57.4863-58.2572,81.5727
						c-20.1692,20.9087-44.5888,38.1191-72.1028,47.8287c-9.3344,3.3859-18.9919,5.6672-28.7534,7.4697
						c-9.7513-1.8025-19.4088-4.0839-28.7537-7.4697c-27.5033-9.7096-51.923-26.92-72.0922-47.8287
						c-23.4509-24.0864-41.8906-52.3087-58.2573-81.5727c-32.8894-6.5216-65.4247-15.3353-95.5847-30.2017
						c-26.1179-12.7203-50.027-30.6288-67.7584-53.7878c-6.1154-7.8344-11.2722-16.3146-15.9916-25.0344
						c-1.3126-9.8345-2.1252-19.7211-1.7814-29.6599c0.7397-29.1599,9.5533-57.6946,23.2008-83.3436
						c15.6686-29.7433,36.8066-56.007,59.5802-80.6141C590.8125,666.3897,589.1458,632.7189,593.9483,599.4439z M848.8342,408.7641
						c0.1144-3.9797,1.3647-7.6989,3.3754-10.991c2.0106,3.2921,3.2711,7.0113,3.3754,10.991
						c0.3438,5.7195-1.1774,11.1159-3.3754,16.2833C850.0217,419.8801,848.5007,414.4836,848.8342,408.7641z M817.0697,460.5934
						c5.0735-8.8761,4.3652-19.5649,5.0109-29.4203c10.6264-4.2088,19.888,5.5528,30.1289,5.6257
						c8.4384-0.0625,16.1999-6.6779,24.6071-6.6779c1.8127,0,3.6462,0.3021,5.532,1.0522
						c0.6459,9.8554-0.0626,20.5443,5.0111,29.4203c0.9688,2.5732,4.2712,4.4901,3.5316,7.4176
						c-11.5743,8.8969-24.9509,14.2726-38.6818,18.7835c-13.7206-4.511-27.0971-9.8866-38.6716-18.7835
						C812.7983,465.0836,816.0903,463.1667,817.0697,460.5934z M812.7253,446.7063c-5.4173,5.8861-11.0742,14.1684-7.1883,22.3882
						c6.6987,13.1683,21.6901,17.8668,34.3376,23.3675c-8.6574,0.1875-17.3458-1.5836-25.6074-4.0942
						c-21.2004-9.5533-43.8594-16.0958-67.0811-18.0231c-36.2963-3.2712-72.7695,4.9485-106.1694,18.8669
						c-0.6355,0.2709-1.2605,0.5522-1.896,0.823c-0.4481,0.5209-0.9169,1.0314-1.3648,1.5523
						c-23.5654,27.4722-42.6511,59.6115-50.7563,95.1367c-5.3444,22.6904-6.1257,46.2557-3.5942,69.3732
						c-0.1563,8.6261-1.1564,17.4397-4.0109,25.6178c-1.3336-13.7205-1.1668-29.4307-11.6161-39.8695
						c-6.6154-6.2404-16.2416-3.4171-23.5133-0.0938c8.5011-66.3936,25.8782-133.3081,62.2681-190.2318
						c0.7188-1.1147,1.4584-2.219,2.1877-3.3233c1.2815-0.3542,2.5629-0.7188,3.8443-1.0522
						C677.938,430.1209,746.9465,434.2777,812.7253,446.7063z M538.3477,513.5374c7.6051-39.5674,20.4192-77.5929,34.0146-115.3892
						c40.1508-1.2502,80.2703-1.6877,120.2545,3.3129c35.1398,4.6464,70.3732,13.4496,101.3458,31.1705
						c-49.308-2.8649-98.8871-6.5946-148.1954-1.8336c-14.9601,1.5523-29.9932,3.5213-44.6721,6.8967
						c-3.8755,6.4592-7.4489,13.1058-10.8036,19.8671c-3.3546,6.7612-6.5111,13.6163-9.5532,20.4921
						c-19.7837,45.4223-31.5456,93.72-44.0575,141.5071C529.3987,584.6296,531.9094,548.4064,538.3477,513.5374z M494.9361,670.7965
						c-3.7609-1.3335-6.8967-3.6776-9.4074-6.605c3.7505-0.896,7.6676-0.9376,11.4911,0.1875
						c5.5527,1.4377,10.2096,4.5527,14.4393,8.2406C505.875,673.1093,500.2701,672.8905,494.9361,670.7965z M522.6375,676.2451
						c3.0942-9.7616-3.3234-21.5861,3.9589-30.3997c9.574,2.4379,19.5233,6.4071,29.5349,4.3339
						c2.7399-0.1354,5.5944-2.6774,8.1364-1.0731c4.886,13.7621,5.8653,28.1493,5.9174,42.5886
						c-8.5323,11.6577-17.773,22.7216-29.8162,30.983c-3.0108-0.1979-3.8129-3.9276-5.959-5.6465
						c-6.8759-7.5738-17.2626-10.1992-26.4408-13.8558C507.2605,691.7574,519.4079,685.965,522.6375,676.2451z M498.6345,998.4725
						c-35.2856-19.4608-67.4875-43.4012-99.231-68.0085c11.2202-38.5672,23.2008-76.874,40.3071-113.3473
						c15.2831-31.9936,34.5459-62.7682,60.9659-86.7607c-17.9606,46.0161-36.8275,92.0114-47.5371,140.382
						c-3.1567,14.7101-5.9278,29.6078-7.2509,44.6201c4.9485,5.6778,10.1783,11.1264,15.554,16.4083
						c5.3965,5.2819,10.9389,10.3972,16.5333,15.4186c37.0983,32.8478,79.3952,58.9656,120.9733,85.6356
						C563.4758,1028.9449,529.805,1015.3599,498.6345,998.4725z M460.7235,914.4516c-0.8438-1.0209-1.6564-2.0627-2.4899-3.1045
						c0.0625-1.3336,0.1147-2.6566,0.1876-3.9797c4.0213-67.4354,29.2953-131.7871,61.4347-190.5027
						c3.9276,6.9697,10.0533,14.9081,19.0753,13.7518c14.5851-2.3024,23.6904-15.1061,32.8374-25.4303
						c-2.5003,8.2927-6.8655,16.0124-11.814,23.0862c-15.6374,17.2104-28.8578,36.7441-37.8693,58.2259
						c-14.3247,33.5146-17.773,70.7379-14.856,106.8049c0.0521,0.6876,0.1354,1.3752,0.1979,2.0627
						c0.3542,0.5939,0.6876,1.1877,1.0522,1.7815c18.8356,30.8893,43.5054,58.976,74.7905,77.6658
						c19.9296,12.0953,42.0991,20.1171,64.8726,24.8469c8.1573,2.8232,16.2313,6.5008,23.1175,11.7306
						c-13.46-2.9691-28.3577-7.9801-41.5051-1.271c-7.9802,4.3652-8.2719,14.3976-7.3552,22.3465
						C561.882,1003.8481,503.6143,966.6456,460.7235,914.4516z M634.7763,1088.3481c-2.4273,3.1566-5.6257,5.4279-9.1885,6.9071
						c0.3124-3.8442,1.4792-7.5844,3.7296-10.8763c3.0838-4.8235,7.4906-8.2926,12.3035-11.1888
						C640.3499,1078.6595,638.4122,1083.9205,634.7763,1088.3481z M669.5932,1085.952
						c-11.0745-2.844-12.8246-16.1896-21.0651-22.2633c-8.3344-5.9695-21.5652-3.5106-27.691-13.1577
						c5.2715-8.3552,12.1265-16.5854,13.2412-26.7534c0.7189-2.6461-0.8231-6.1465,1.5002-8.0739
						c14.5955-0.3959,28.5765,3.1254,42.3281,7.5426c8.4594,11.7097,16.1166,23.9197,20.2524,37.9214
						c-1.1146,2.8024-4.9172,2.417-7.2091,3.9276C681.626,1069.2937,675.9168,1078.3573,669.5932,1085.952z M947.5546,1186.0894
						c-29.4099,27.545-62.1223,50.7667-95.345,73.3634c-33.2125-22.5967-65.9352-45.8184-95.3452-73.3634
						c-25.6907-24.4197-49.0165-52.2565-63.6642-84.7916c38.2131,31.2955,76.124,63.4556,118.8272,88.5839
						c13.0016,7.553,26.3262,14.783,40.1821,20.6899c6.9279-2.9481,13.7308-6.2404,20.4191-9.7302
						c6.6884-3.4901,13.262-7.1781,19.7733-10.9597c42.7033-25.1283,80.6143-57.2883,118.8273-88.5839
						C996.5814,1133.8329,973.2557,1161.6697,947.5546,1186.0894z M855.939,1196.1843c-1.2397,0.4794-2.4794,0.9377-3.7295,1.396
						c-1.2398-0.4583-2.49-0.9166-3.7192-1.396c-62.8932-24.6593-116.2852-68.5813-162.1971-117.2957
						c7.8446-1.5836,17.2936-4.959,18.971-13.8977c2.3232-14.5851-7.0425-27.2012-14.0329-39.088
						c7.1154,4.9381,13.1057,11.4806,18.3043,18.3668c11.543,20.1899,26.024,38.7965,43.6721,54.0171
						c27.4513,23.9717,61.7784,38.7651,96.9911,47.1309c0.6667,0.1563,1.3438,0.2917,2.0107,0.448
						c0.6771-0.1563,1.3542-0.2917,2.0211-0.448c35.2127-8.3657,69.5399-23.1592,96.9807-47.1309
						c17.6585-15.2206,32.1393-33.8271,43.6825-54.0171c5.1985-6.8862,11.1889-13.4287,18.3043-18.3668
						c-6.9904,11.8868-16.3563,24.5029-14.0434,39.088c1.6877,8.9387,11.1368,12.3141,18.9815,13.8977
						C972.2244,1127.603,918.8323,1171.525,855.939,1196.1843z M1075.1121,1084.3789c2.2502,3.292,3.4171,7.0321,3.7296,10.8763
						c-3.563-1.4792-6.7612-3.7505-9.1886-6.9071c-3.6462-4.4276-5.5841-9.6886-6.8446-15.1581
						C1067.6215,1076.0863,1072.0179,1079.5554,1075.1121,1084.3789z M1055.9012,1063.6887
						c-8.2406,6.0737-10.0011,19.4193-21.0754,22.2633c-6.3132-7.5947-12.0222-16.6583-21.3464-20.8567
						c-2.2921-1.5106-6.0945-1.1252-7.2093-3.9276c4.1359-14.0017,11.7932-26.2117,20.2422-37.9214
						c13.7621-4.4172,27.743-7.9385,42.3385-7.5426c2.3127,1.9274,0.7814,5.4278,1.5001,8.0739
						c1.1149,10.1679,7.9698,18.3981,13.2412,26.7534C1077.4666,1060.1781,1064.2357,1057.7192,1055.9012,1063.6887z
						 M1082.0295,1032.4662c0.9169-7.9489,0.6251-17.9813-7.3551-22.3465c-13.1578-6.7091-28.0452-1.6981-41.505,1.271
						c6.8862-5.2298,14.9601-8.9073,23.1173-11.7306c22.7738-4.7298,44.9431-12.7516,64.8727-24.8469
						c31.2747-18.6898,55.9547-46.7766,74.7905-77.6658c0.3541-0.5938,0.6979-1.1876,1.0522-1.7815
						c0.0624-0.6876,0.1353-1.3752,0.1979-2.0627c2.917-36.067-0.5417-73.2903-14.8561-106.8049
						c-9.0114-21.4818-22.2318-41.0155-37.8796-58.2259c-4.9381-7.0739-9.3033-14.7935-11.8035-23.0862
						c9.1365,10.3242,18.2418,23.1279,32.8374,25.4303c9.0219,1.1564,15.1477-6.7821,19.0752-13.7518
						c32.1394,58.7156,57.4133,123.0673,61.4348,190.5027c0.0729,1.3231,0.1249,2.6461,0.177,3.9797
						c-0.8231,1.0418-1.6461,2.0836-2.4795,3.1045C1200.8151,966.6456,1142.5475,1003.8481,1082.0295,1032.4662z
						 M1205.7948,998.4725c-31.1704,16.8875-64.8413,30.4725-100.325,34.348c41.5885-26.67,83.8854-52.7878,120.9735-85.6356
						c11.1992-10.0428,22.2006-20.4713,32.0975-31.8268c-0.6667-7.5009-1.6876-14.981-2.9377-22.4194
						c-1.2501-7.4385-2.7296-14.8456-4.3131-22.2007c-10.7096-48.3706-29.5765-94.3658-47.5371-140.382
						c26.4199,23.9926,45.6827,54.7672,60.9659,86.7607c17.1062,36.4733,29.0868,74.7801,40.307,113.3473
						C1273.2823,955.0712,1241.0702,979.0117,1205.7948,998.4725z"/>
					<path fill="#0C0C0C" d="M691.0681,835.6934c26.1615-25.527,50.6639-52.8389,74.3741-80.5532l-6.599-2.1441
						c-26.147,31.5604-54.795,61.0512-85.3514,88.408l-0.0004,0.0001c0.0001,0,0.0001,0,0.0002,0
						c-0.0001,0.0001-0.0001,0.0001-0.0001,0.0002l0.0004-0.0001c40.8006,4.1716,81.3116,11.1913,121.0157,21.3553l4.0784-5.6135
						C763.114,848.6614,727.2377,840.9677,691.0681,835.6934z"/>
					<path fill="#0C0C0C" d="M758.8432,752.996l6.599,2.1442c-2.8919-36.3578-6.6611-72.8557-12.8219-108.8848
						c32.3619,16.9929,65.9087,31.8561,99.5933,45.8417v-6.9387c-38.0956-15.1146-74.9957-33.2473-110.456-53.8544l-0.0002-0.0003
						c0,0.0001,0,0.0001,0,0.0002c0-0.0001-0.0002-0.0001-0.0003-0.0001l0.0004,0.0004
						C750.3979,671.3969,756.2405,712.0942,758.8432,752.996z"/>
					<path fill="#0C0C0C" d="M1105.1158,812.7828c3.292,1.9481,7.1779,1.8231,10.8867,2.1669
						c0.2083-21.2734-10.0013-40.6091-17.2001-60.0699c-3.2192-9.6575-4.8964-19.8149-8.9282-29.2432
						c-2.4065-5.7403-4.9694-11.4181-7.626-17.0438c-1.1667-6.1153-2.4272-12.2098-3.8442-18.2731
						c-2.2815-9.9908-6.8966-19.2003-9.9595-28.9098c-5.6257-19.9712-8.7302-41.6197-21.4088-58.7051
						c-2.7922,2.4586-6.0112,4.6464-7.5323,8.1572c-4.636,9.5637-11.5222,17.971-14.5538,28.2952
						c-8.6781,20.2421-17.0438,40.5988-25.9094,60.7471c1.0209-25.2427,1.5836-50.527,1.4168-75.801
						c-0.1771-14.5747-0.2813-29.1703-0.7709-43.7554c-14.0122,4.0422-27.9304,8.4594-41.8385,12.7933
						c-24.0967,7.6572-47.9643,16.002-71.6652,24.7739c16.4291-14.658,33.2126-28.9098,49.777-43.4116
						c8.8761-6.084,14.7518-15.2206,22.409-22.5861c2.8754-2.542,3.9484-6.2717,5.4277-9.6887
						c-20.1586-6.7717-41.7031-3.042-62.4452-2.2086c-10.1888,0.0833-20.3567-1.4586-30.5663-0.5418
						c-6.209,0.5209-12.3973,1.1981-18.5751,1.9795c-6.1676-0.7814-12.3558-1.4586-18.5648-1.9795
						c-10.2097-0.9167-20.3881,0.6251-30.5664,0.5418c-20.7421-0.8334-42.2863-4.5631-62.4556,2.2086
						c1.4794,3.4171,2.5627,7.1467,5.4381,9.6887c7.6573,7.3655,13.5225,16.5021,22.4091,22.5861
						c16.5646,14.5018,33.3479,28.7536,49.777,43.4116c-23.7009-8.7719-47.5683-17.1167-71.6652-24.7739
						c-13.9078-4.3339-27.8264-8.7511-41.8489-12.7933c-0.4792,14.5851-0.5834,29.1807-0.7605,43.7554
						c-0.1667,25.274,0.3958,50.5583,1.4169,75.801c-8.8657-20.1483-17.2314-40.505-25.9095-60.7471
						c-3.0317-10.3242-9.9179-18.7314-14.5538-28.2952c-1.5314-3.5108-4.7402-5.6986-7.5426-8.1572
						c-12.6684,17.0854-15.7729,38.7339-21.3985,58.7051c-3.0628,9.7095-7.6782,18.919-9.9597,28.9098
						c-1.4168,6.0633-2.6774,12.1578-3.8442,18.2731c-2.6566,5.6257-5.2194,11.3035-7.626,17.0438
						c-4.0316,9.4283-5.709,19.5858-8.9386,29.2432c-7.1884,19.4608-17.398,38.7964-17.1896,60.0699
						c3.7087-0.3438,7.5946-0.2188,10.8868-2.1669c9.3762-5.011,19.8877-7.7614,28.4096-14.3351
						c18.9191-11.2722,37.6505-22.8361,56.6633-33.9208c-15.6582,19.8253-30.9725,39.9424-45.7036,60.4971
						c-8.4177,11.8868-16.9187,23.7634-25.0864,35.8377c13.7099,4.9694,27.5659,9.5845,41.3696,14.2518
						c23.9926,7.9698,48.2039,15.2519,72.5298,22.0861c-21.8986,2.1982-43.8492,3.8651-65.779,5.8654
						c-10.7617-0.3126-20.8881,3.6462-31.41,5.0944c-3.8132,0.3646-6.8864,2.7504-10.0847,4.6464
						c12.3348,17.3355,31.9519,26.9721,49.2249,38.4944c8.2822,5.9174,15.6061,13.1475,24.4093,18.4086
						c5.3234,3.2296,10.7304,6.3133,16.1895,9.3032c4.5317,4.2609,9.1365,8.4594,13.8558,12.5223
						c7.7198,6.7405,16.8563,11.4806,25.0448,17.5334c16.2937,12.8558,31.5247,28.5348,51.8189,34.921
						c0.8126-3.6359,2.1357-7.2926,1.3022-11.0327c-1.8649-10.4595-1.2397-21.3151-4.8547-31.4518
						c-4.8757-21.4714-10.0742-42.8594-14.7519-64.3725c14.0227,21.0234,28.4201,41.8073,43.4117,62.1639
						c8.7093,11.6785,17.3771,23.4299,26.3366,34.9418c8.9697-11.5119,17.6376-23.2633,26.3365-34.9418
						c14.9915-20.3567,29.3996-41.1405,43.4117-62.1639c-4.6672,21.5131-9.8658,42.9011-14.7414,64.3725
						c-3.6152,10.1367-2.99,20.9922-4.8549,31.4518c-0.8334,3.7401,0.4896,7.3969,1.3022,11.0327
						c20.2942-6.3862,35.5253-22.0652,51.8189-34.921c8.1887-6.0529,17.3252-10.793,25.0448-17.5334
						c4.7194-4.063,9.324-8.2614,13.856-12.5223c5.459-2.9899,10.8658-6.0737,16.1895-9.3032
						c8.7927-5.2611,16.127-12.4912,24.4092-18.4086c17.2627-11.5223,36.8899-21.1589,49.2249-38.4944
						c-3.2087-1.896-6.2716-4.2817-10.0845-4.6464c-10.5327-1.4481-20.6484-5.4069-31.4103-5.0944
						c-21.9297-2.0002-43.8803-3.6672-65.7789-5.8654c24.3259-6.8342,48.5372-14.1163,72.5296-22.0861
						c13.8038-4.6672,27.6598-9.2823,41.3699-14.2518c-8.1781-12.0743-16.6687-23.9509-25.0968-35.8377
						c-14.7207-20.5547-30.035-40.6718-45.7037-60.4971c19.0232,11.0847,37.7546,22.6486,56.6738,33.9208
						C1085.2279,805.0214,1095.7396,807.7718,1105.1158,812.7828z M755.6246,548.448c31.9727-1.8336,64.5913-2.6357,96.5849,0.8439
						c32.004-3.4796,64.6225-2.6774,96.5953-0.8439c-30.3997,29.3995-59.4345,61.5598-96.5953,82.5519
						C815.059,610.0078,786.0139,577.8475,755.6246,548.448z M598.9802,802.6149c8.1365-30.9727,17.4501-62.2473,30.6496-91.6051
						c6.5738-31.5039,17.4189-62.2786,29.0453-92.1156c18.5648,37.9839,40.182,75.5406,48.6622,117.3687
						C675.8961,765.1103,636.3286,782.7895,598.9802,802.6149z M792.2959,1030.1327
						c-26.9514-17.3043-53.8089-35.8378-77.6451-57.4551c-27.9306-15.9916-53.8505-35.817-78.6347-56.0903
						c41.8593-5.9174,84.2603-14.8664,126.6615-10.0117C780.3986,945.3929,784.9825,988.4816,792.2959,1030.1327z
						 M1068.4133,916.5873c-24.7843,20.2734-50.7043,40.0988-78.6348,56.0903c-23.8363,21.6172-50.7042,40.1508-77.645,57.4551
						c7.3134-41.6511,11.8973-84.7397,29.6183-123.5571C984.1528,901.7209,1026.5538,910.6699,1068.4133,916.5873z
						 M1069.9136,851.8397c0.5521,0.9272,1.1146,1.8544,1.6771,2.7712c-1.0001,0.4272-2.0002,0.8334-2.9899,1.2606
						c-43.0054,17.2938-87.3025,32.8791-132.7247,42.6094c-23.2946,40.2029-51.7982,77.5096-81.5414,113.0661
						c-0.7084,0.8126-1.4168,1.6356-2.1252,2.4586c-0.6982-0.823-1.4065-1.646-2.1149-2.4586
						c-29.7433-35.5565-58.2573-72.8632-81.5413-113.0661c-45.4224-9.7303-89.7195-25.3156-132.7248-42.6094
						c-0.9898-0.4271-2.0003-0.8334-2.9899-1.2606c0.5626-0.9168,1.1252-1.8439,1.6772-2.7712
						c24.6281-39.2757,51.298-77.9159,82.3331-112.4931c-4.7818-46.2036-3.6463-93.1469-0.4897-139.3922
						c0.0939-1.0731,0.1772-2.1566,0.2709-3.24c1.0522,0.25,2.1045,0.5105,3.1567,0.7501
						c44.9639,11.2826,89.9592,24.7114,132.4227,43.5366c42.4739-18.8253,87.4691-32.254,132.4225-43.5366
						c1.0627-0.2396,2.1149-0.5001,3.1671-0.7501c0.0834,1.0834,0.1667,2.1669,0.2709,3.24
						c3.1567,46.2453,4.2922,93.1886-0.4896,139.3922C1018.6155,773.9238,1045.2854,812.564,1069.9136,851.8397z M997.092,736.2629
						c8.4802-41.8281,30.0975-79.3848,48.6623-117.3687c11.6265,29.837,22.4609,60.6117,29.0452,92.1156
						c13.1995,29.3578,22.5132,60.6324,30.6495,91.6051C1068.1008,782.7895,1028.5334,765.1103,997.092,736.2629z"/>
					<path fill="#0C0C0C" d="M938.9852,755.1402c23.7101,27.7142,48.2126,55.0262,74.3742,80.5532
						c-36.1696,5.2744-72.0459,12.968-107.5179,21.4528l4.0786,5.6135c39.704-10.1641,80.215-17.1838,121.0154-21.3553
						l0.0006,0.0001c0-0.0001-0.0001-0.0001-0.0004-0.0002c0.0002,0,0.0004,0,0.0004,0l-0.0005-0.0001
						c-30.5563-27.3568-59.2044-56.8476-85.3513-88.408L938.9852,755.1402z"/>
					<path fill="#0C0C0C" d="M938.9852,755.1401l6.5991-2.1442c2.6026-40.9017,8.4451-81.5991,17.0856-121.6919l0.0004-0.0004
						c-0.0001,0.0001-0.0001,0.0001-0.0002,0.0001c0-0.0001,0.0001-0.0001,0.0001-0.0002l-0.0003,0.0003
						c-35.4603,20.6072-72.3605,38.7398-110.456,53.8544l-0.0001,6.9387c33.6846-13.9857,67.2316-28.8488,99.5933-45.8417
						C945.6464,682.2845,941.8772,718.7823,938.9852,755.1401z"/>
				</g>
			</g>
		</g>
	</g>
</g>
</svg>
